<svg viewBox="0 0 48 48" x="0" y="0" fill="none" xmlns="http://www.w3.org/2000/svg"><g id="1F680 (1) 1" xmlns="http://www.w3.org/2000/svg">
<g id="color">
<path id="Vector_7" d="M32.31,17.241c0.773,0 1.401,-0.628 1.401,-1.401c0,-0.774 -0.628,-1.401 -1.401,-1.401c-0.774,0 -1.401,0.627 -1.401,1.401c0,0.773 0.627,1.401 1.401,1.401z" fill="white"/>
<path id="Vector_8" d="M10.747,32.076c-2.106,2.109 -3.102,5.04 -2.647,7.792c2.752,0.451 5.681,-0.546 7.789,-2.651c2.105,-2.109 3.101,-5.04 2.646,-7.792c-2.752,-0.451 -5.681,0.546 -7.788,2.651z" fill="#FCEA2B"/>
<path id="Vector_9" d="M21.315,30.559c-0.128,0.644 -0.444,1.236 -0.907,1.701c-0.226,0.225 -0.484,0.416 -0.764,0.568c1.442,1.981 2.505,4.189 3.13,6.5c0.473,-0.414 0.927,-0.852 1.361,-1.312c1.276,-1.357 2.366,-2.892 3.235,-4.555c0.834,-1.614 1.45,-3.329 1.829,-5.091c-2.485,1.303 -5.181,2.052 -7.884,2.189z" fill="#61B2E4"/>
<path id="Vector_10" d="M9.948,23.833c-0.46,0.433 -0.898,0.887 -1.312,1.359c2.312,0.62 4.523,1.68 6.507,3.118c0.151,-0.276 0.34,-0.529 0.562,-0.752c0.463,-0.462 1.053,-0.777 1.694,-0.906c0.141,-2.701 0.891,-5.393 2.196,-7.876c0.001,-0.003 0.002,-0.005 0.004,-0.008c-1.764,0.38 -3.48,0.996 -5.094,1.829c-1.664,0.869 -3.2,1.96 -4.557,3.236z" fill="#92D3F5"/>
<path id="Vector_11" d="M23.214,13.831c-3.487,3.501 -5.578,8.109 -5.815,12.822c1.092,-0.221 2.222,0.119 3.01,0.906c0.791,0.791 1.13,1.927 0.904,3.022c4.717,-0.241 9.328,-2.335 12.828,-5.826c4.474,-4.482 6.589,-10.712 5.622,-16.56c-1.154,-0.188 -2.336,-0.258 -3.527,-0.209c-4.783,0.195 -9.474,2.301 -13.022,5.845zM30.047,13.479c1.227,-1.228 3.218,-1.228 4.446,-0.001c0,0 0,0 0,0.001c1.228,1.227 1.229,3.217 0.001,4.444c0,0 0,0.001 -0.001,0.001c-1.228,1.227 -3.218,1.226 -4.445,-0.001c-1.228,-1.227 -1.229,-3.217 -0.001,-4.444z" fill="#EA5A47"/>
<path id="Vector_12" d="M17.692,34.691c-0.584,0.656 -1.26,1.231 -2.005,1.708c-2.327,1.482 -5.15,1.89 -7.627,1.102c-0.1,0.798 -0.087,1.595 0.04,2.367c2.752,0.45 5.681,-0.547 7.788,-2.652c0.737,-0.742 1.347,-1.597 1.804,-2.525z" fill="#F1B31C"/>
<path id="Vector_13" d="M17.469,25.791c-0.022,0.286 -0.037,0.571 -0.045,0.856c1.085,-0.211 2.203,0.131 2.985,0.912c0.79,0.791 1.13,1.927 0.904,3.022c4.716,-0.241 9.327,-2.336 12.826,-5.828c0.996,-1.004 1.885,-2.107 2.65,-3.289c-0.898,0.818 -1.87,1.556 -2.902,2.205c-5.038,3.141 -11.129,3.928 -16.418,2.122z" fill="#D22F27"/>
<path id="Vector_14" d="M16.026,32.367c0.58,-0.291 1.147,-0.612 1.7,-0.958c1.629,-1.022 3.118,-2.27 4.42,-3.704l0.001,-0.002c1.254,-1.394 2.317,-2.945 3.156,-4.608c0.04,-0.08 0.064,-0.168 0.069,-0.258c-2.265,-0.502 -9.897,6.834 -9.346,9.53z" fill="#61B2E4"/>
</g>
<g id="line">
<path id="Vector_15" d="M32.27,19.66c-2.184,0 -3.96,-1.776 -3.96,-3.959c0,-2.184 1.776,-3.96 3.96,-3.96c2.184,0 3.961,1.776 3.961,3.96c0,2.183 -1.777,3.959 -3.961,3.959zM32.27,13.061c-1.456,0 -2.64,1.184 -2.64,2.64c0,1.455 1.184,2.639 2.64,2.639c1.456,0 2.641,-1.184 2.641,-2.639c0,-1.456 -1.185,-2.64 -2.641,-2.64z" fill="black"/>
<path id="Vector_16" d="M13.769,30.042c-1.119,0.472 -2.148,1.165 -3.022,2.034c-2.106,2.109 -3.101,5.039 -2.647,7.791c2.752,0.451 5.681,-0.546 7.788,-2.651c0.87,-0.874 1.564,-1.903 2.036,-3.021" stroke="black" stroke-width="1.949" stroke-linecap="round" stroke-linejoin="round"/>
<path id="Vector_17" d="M9.948,23.833c-0.46,0.433 -0.898,0.887 -1.312,1.359c2.312,0.62 4.523,1.68 6.507,3.118c0.151,-0.276 0.34,-0.529 0.562,-0.752c0.463,-0.462 1.053,-0.777 1.694,-0.906c0.141,-2.701 0.891,-5.393 2.196,-7.876c0.001,-0.003 0.002,-0.005 0.004,-0.008c-1.764,0.38 -3.48,0.996 -5.094,1.829c-1.664,0.869 -3.2,1.96 -4.557,3.236z" stroke="black" stroke-width="1.949" stroke-linecap="round" stroke-linejoin="round"/>
<path id="Vector_18" d="M21.315,30.559c-0.128,0.644 -0.444,1.236 -0.907,1.701c-0.226,0.225 -0.484,0.416 -0.764,0.568c1.442,1.981 2.505,4.189 3.13,6.5c0.473,-0.414 0.927,-0.852 1.361,-1.312c1.276,-1.357 2.366,-2.892 3.235,-4.555c0.834,-1.614 1.45,-3.329 1.829,-5.091c-2.485,1.303 -5.181,2.052 -7.884,2.189z" stroke="black" stroke-width="1.949" stroke-linecap="round" stroke-linejoin="round"/>
<path id="Vector_19" d="M21.22,28.897c0.18,0.591 0.167,1.128 0.092,1.683c4.717,-0.241 9.328,-2.336 12.828,-5.828c4.474,-4.481 6.589,-10.708 5.624,-16.556c-5.848,-0.957 -12.072,1.162 -16.549,5.634c-3.488,3.501 -5.579,8.109 -5.816,12.823c0.627,-0.127 1.266,-0.063 1.846,0.159" stroke="black" stroke-width="1.949" stroke-linecap="round" stroke-linejoin="round"/>
<path id="Vector_20" d="M24.715,22.797c-1.611,0.813 -3.115,1.842 -4.467,3.057c-1.39,1.26 -2.6,2.703 -3.589,4.28c-0.336,0.536 -0.646,1.085 -0.928,1.647" stroke="black" stroke-width="1.949" stroke-linecap="round" stroke-linejoin="round"/>
</g>
</g></svg>